<?xml version="1.0" encoding="utf-8"?>
<!-- Generator: Adobe Illustrator 16.0.0, SVG Export Plug-In . SVG Version: 6.00 Build 0)  -->
<!DOCTYPE svg PUBLIC "-//W3C//DTD SVG 1.1//EN" "http://www.w3.org/Graphics/SVG/1.1/DTD/svg11.dtd">
<svg version="1.1" id="Layer_1" xmlns="http://www.w3.org/2000/svg" xmlns:xlink="http://www.w3.org/1999/xlink" x="0px" y="0px"
	 width="566.93px" height="566.93px" viewBox="0 0 566.93 566.93" enable-background="new 0 0 566.93 566.93" xml:space="preserve">
<g>
	<g>
		<path fill="#34b8c8" d="M285.44,523.479c24-24,48-48,72-72c1.928-1.929,0.516-5.335-2.21-5.335c-47.249,0-94.497,0-141.746,0
			c-0.751,0-1.502,0-2.253,0c-2.726,0-4.138,3.406-2.209,5.335c24,24,47.999,48,71.999,72c2.853,2.853,7.271-1.567,4.42-4.42
			c-24-24-48-48-72-72c-0.736,1.778-1.473,3.557-2.209,5.335c47.249,0,94.497,0,141.746,0c0.751,0,1.502,0,2.253,0
			c-0.736-1.778-1.473-3.557-2.21-5.335c-24,24-48,48-72,72C278.168,521.912,282.588,526.332,285.44,523.479z"/>
	</g>
</g>
<g>
	<g>
		<path fill="#34b8c8" d="M303.456,399.888c17.994-19.778,35.989-39.557,53.984-59.334c-1.778-0.737-3.557-1.474-5.335-2.21
			c-0.143,31.989-0.285,63.978-0.428,95.967c1.042-1.042,2.083-2.083,3.125-3.125c-47.249,0-94.497,0-141.746,0
			c-0.751,0-1.502,0-2.253,0c0.736,1.778,1.473,3.557,2.209,5.335c31.995-36.073,63.99-72.147,95.985-108.221
			c15.95-17.983,31.9-35.967,47.851-53.95c2.664-3.004-1.74-7.441-4.42-4.42c-31.994,36.073-63.989,72.147-95.984,108.221
			c-15.95,17.983-31.9,35.967-47.851,53.95c-1.764,1.989-0.639,5.335,2.209,5.335c47.249,0,94.497,0,141.746,0
			c0.751,0,1.502,0,2.253,0c1.709,0,3.117-1.422,3.125-3.125c0.143-31.989,0.285-63.978,0.428-95.967
			c0.012-2.637-3.471-4.259-5.335-2.21c-17.994,19.778-35.989,39.557-53.984,59.334
			C296.331,398.441,300.738,402.875,303.456,399.888L303.456,399.888z"/>
	</g>
</g>
<g>
	<g>
		<path fill="#34b8c8" d="M352.593,240.269c-31.521,36.346-63.043,72.693-94.564,109.04c-16.478,19.001-32.956,38.001-49.434,57.001
			c1.741,1.014,3.482,2.027,5.223,3.041c8.763-35.158,17.526-70.315,26.289-105.474c15.361-61.628,30.722-123.257,46.083-184.886
			c6.023-24.168,12.047-48.336,18.071-72.504c-2.009,0-4.019,0-6.027,0c14.204,47.735,28.407,95.47,42.61,143.204
			c3.791,12.743,7.583,25.485,11.374,38.227c1.005-1.318,2.009-2.637,3.014-3.956c-24.143,0-48.285,0-72.428,0
			c-4.03,0-4.03,6.25,0,6.25c24.143,0,48.285,0,72.428,0c2,0,3.596-2,3.014-3.956c-14.204-47.735-28.407-95.47-42.61-143.204
			c-3.791-12.743-7.583-25.485-11.374-38.227c-0.861-2.892-5.26-3.077-6.027,0c-8.763,35.158-17.525,70.315-26.288,105.473
			c-15.361,61.629-30.722,123.257-46.082,184.886c-6.024,24.168-12.048,48.336-18.071,72.504c-0.716,2.87,3.08,5.513,5.223,3.041
			c31.522-36.347,63.043-72.693,94.564-109.04c16.479-19,32.956-38.001,49.435-57.001
			C359.64,241.659,355.238,237.219,352.593,240.269L352.593,240.269z"/>
	</g>
</g>
<path fill="#FFFFFF" stroke="#000000" stroke-miterlimit="10" d="M296.639,513.195"/>
</svg>
